<svg width="2002" height="431" viewBox="0 0 2002 431" fill="none" xmlns="http://www.w3.org/2000/svg">
<path d="M776.99 1L0.999452 430.428" stroke="#B3B3B3" stroke-width="1.12005"/>
<path d="M803.344 1L210.071 430.428" stroke="#B3B3B3" stroke-width="1.12005"/>
<path d="M829.697 1L367.663 430.428" stroke="#B3B3B3" stroke-width="1.12005"/>
<path d="M856.053 1L495.534 430.428" stroke="#B3B3B3" stroke-width="1.12005"/>
<path d="M882.406 1L605.005 430.428" stroke="#B3B3B3" stroke-width="1.12005"/>
<path d="M908.762 1L702.641 430.428" stroke="#B3B3B3" stroke-width="1.12005"/>
<path d="M935.114 1L792.589 430.428" stroke="#B3B3B3" stroke-width="1.12005"/>
<path d="M961.468 1L877.719 430.428" stroke="#B3B3B3" stroke-width="1.12005"/>
<path d="M987.823 1L960.19 430.428" stroke="#B3B3B3" stroke-width="1.12005"/>
<path d="M1014.18 1L1041.81 430.428" stroke="#B3B3B3" stroke-width="1.12005"/>
<path d="M1040.53 1L1124.28 430.428" stroke="#B3B3B3" stroke-width="1.12005"/>
<path d="M1066.88 1L1209.41 430.428" stroke="#B3B3B3" stroke-width="1.12005"/>
<path d="M1093.24 1L1299.36 430.428" stroke="#B3B3B3" stroke-width="1.12005"/>
<path d="M1119.59 1L1396.99 430.428" stroke="#B3B3B3" stroke-width="1.12005"/>
<path d="M1145.95 1L1506.47 430.428" stroke="#B3B3B3" stroke-width="1.12005"/>
<path d="M1172.3 1L1634.34 430.428" stroke="#B3B3B3" stroke-width="1.12005"/>
<path d="M1198.66 1L1791.93 430.428" stroke="#B3B3B3" stroke-width="1.12005"/>
<path d="M1225.01 1L2001 430.428" stroke="#B3B3B3" stroke-width="1.12005"/>
<path d="M776.99 1H1225.01" stroke="#B3B3B3" stroke-width="1.12005"/>
<path d="M776.99 1H1225.01" stroke="#B3B3B3" stroke-width="1.12005"/>
<path d="M776.99 1H1225.01" stroke="#B3B3B3" stroke-width="1.12005"/>
<path d="M776.99 1H1225.01" stroke="#B3B3B3" stroke-width="1.12005"/>
<path d="M776.99 1.00006H1225.01" stroke="#B3B3B3" stroke-width="1.12005"/>
<path d="M776.99 1.00031H1225.01" stroke="#B3B3B3" stroke-width="1.12005"/>
<path d="M776.989 1.00092H1225.01" stroke="#B3B3B3" stroke-width="1.12005"/>
<path d="M776.985 1.00256H1225.01" stroke="#B3B3B3" stroke-width="1.12005"/>
<path d="M776.979 1.00659H1225.02" stroke="#B3B3B3" stroke-width="1.12005"/>
<path d="M776.962 1.01495H1225.03" stroke="#B3B3B3" stroke-width="1.12005"/>
<path d="M776.934 1.03131H1225.07" stroke="#B3B3B3" stroke-width="1.12005"/>
<path d="M776.88 1.06097H1225.12" stroke="#B3B3B3" stroke-width="1.12005"/>
<path d="M776.787 1.11206H1225.21" stroke="#B3B3B3" stroke-width="1.12005"/>
<path d="M776.636 1.19635H1225.36" stroke="#B3B3B3" stroke-width="1.12005"/>
<path d="M776.394 1.32996H1225.6" stroke="#B3B3B3" stroke-width="1.12005"/>
<path d="M776.024 1.53467H1225.98" stroke="#B3B3B3" stroke-width="1.12005"/>
<path d="M775.472 1.83997H1226.53" stroke="#B3B3B3" stroke-width="1.12005"/>
<path d="M774.67 2.284H1227.33" stroke="#B3B3B3" stroke-width="1.12005"/>
<path d="M773.528 2.91577H1228.47" stroke="#B3B3B3" stroke-width="1.12005"/>
<path d="M771.936 3.79718H1230.06" stroke="#B3B3B3" stroke-width="1.12005"/>
<path d="M769.753 5.00549H1232.25" stroke="#B3B3B3" stroke-width="1.12005"/>
<path d="M766.806 6.63617H1235.19" stroke="#B3B3B3" stroke-width="1.12005"/>
<path d="M762.885 8.80548H1239.11" stroke="#B3B3B3" stroke-width="1.12005"/>
<path d="M757.737 11.6545H1244.26" stroke="#B3B3B3" stroke-width="1.12005"/>
<path d="M751.055 15.3522H1250.94" stroke="#B3B3B3" stroke-width="1.12005"/>
<path d="M742.477 20.0994H1259.52" stroke="#B3B3B3" stroke-width="1.12005"/>
<path d="M731.574 26.1335H1270.43" stroke="#B3B3B3" stroke-width="1.12005"/>
<path d="M717.841 33.7329H1284.16" stroke="#B3B3B3" stroke-width="1.12005"/>
<path d="M700.692 43.2226H1301.31" stroke="#B3B3B3" stroke-width="1.12005"/>
<path d="M679.449 54.9789H1322.55" stroke="#B3B3B3" stroke-width="1.12005"/>
<path d="M653.324 69.4364H1348.68" stroke="#B3B3B3" stroke-width="1.12005"/>
<path d="M621.416 87.0936H1380.58" stroke="#B3B3B3" stroke-width="1.12005"/>
<path d="M582.698 108.52H1419.3" stroke="#B3B3B3" stroke-width="1.12005"/>
<path d="M535.998 134.363H1466" stroke="#B3B3B3" stroke-width="1.12005"/>
<path d="M479.989 165.358H1522.01" stroke="#B3B3B3" stroke-width="1.12005"/>
<path d="M413.174 202.333H1588.82" stroke="#B3B3B3" stroke-width="1.12005"/>
<path d="M333.869 246.22H1668.13" stroke="#B3B3B3" stroke-width="1.12005"/>
<path d="M240.184 298.064H1761.81" stroke="#B3B3B3" stroke-width="1.12005"/>
<path d="M130.012 359.033H1871.99" stroke="#B3B3B3" stroke-width="1.12005"/>
<path d="M0.999023 430.428H2001" stroke="#B3B3B3" stroke-width="1.12005"/>
</svg>
